<svg id="Layer_1" xmlns="http://www.w3.org/2000/svg" viewBox="0 0 512 512"><style>.st0{fill:#ff6c37}.st1{fill:#fff}</style><path class="st0" d="M288.6 2.1C148.4-15.9 20.1 83.2 2.1 223.4s81.1 268.5 221.3 286.5 268.5-81.1 286.5-221.3c18-140.2-81.1-268.5-221.3-286.5zm110 164.6l-25.8-25.8 32.7-32.7c14.1 15.3 13.6 39.1-1.2 53.8-1.7 1.7-3.6 3.3-5.7 4.7zM106.1 397l20.2-20.2 26.1 26.1-45.3-3.1c-.9-.1-1.6-.9-1.5-1.8 0-.4.1-.7.5-1zm103.7-151.5l18.8 18.7-42.2 9.1c-.7.2-1.5-.2-1.8-.8-.4-.7-.3-1.5.3-2l24.9-25zm9.9 39.2c-.3-.5-.2-1.2.2-1.6l13.8-13.8 10.9 10.9-23.5 5.1c-.6.2-1.2-.1-1.4-.6zm135.1-104.2c-.1 3.7-1.7 7.1-4.5 9.5l-100.2 88-12.5-12.5 94.7-94.7c5.2-5.2 13.5-5.2 18.7 0 2.5 2.5 3.9 6.1 3.8 9.7zm-26.2-13.4l-95 95-6.6-6.6-13.7-13.7c93.6-93.4 110.5-94.3 127.9-80.1-4.7.2-9.2 2.1-12.6 5.4zM156 399.4l-19.9-19.9-6.3-6.3 80.3-80.2 38.8-8.4 18.6 18.6c-26.8 23.5-63.4 46.9-108.8 69.7-2 1-3 3.3-2.5 5.5l4.3 18.5c.3 1.4-.5 2.9-2 3.2-.8.2-1.8-.1-2.5-.7zm115.3-99.6l-17.9-17.9 100.2-88c.9-.8 1.8-1.7 2.5-2.7-3.1 28.7-43.2 69.2-84.8 108.6zm78-137.9c-15.1-15.2-15.1-39.8.1-55 14.2-14.2 36.9-15.2 52.3-2.3L367.4 139c-1 1-1 2.6 0 3.6l26.6 26.6a38.49 38.49 0 0 1-44.7-7.3z"/><path class="st1" d="M213.4 241.9l13.7 13.7 6.6 6.6 95-95c3.4-3.4 7.9-5.3 12.6-5.4-17.4-14.2-34.3-13.3-127.9 80.1zM353.7 193.9l-100.2 88 17.9 17.9c41.6-39.4 81.7-79.9 84.9-108.7-.8 1-1.7 1.9-2.6 2.8zM184.5 272.5c.3.7 1.1 1 1.8.8l42.2-9.1-18.8-18.7-25 25c-.5.5-.6 1.3-.2 2zM394 169.3l-26.6-26.6c-1-1-1-2.6 0-3.6l34.4-34.4c-16.4-13.8-41-11.7-54.8 4.8-13.8 16.4-11.7 41 4.8 54.8 11.8 9.8 28.4 11.8 42.2 5z"/><path class="st1" d="M415.8 134.5c0-9.7-3.6-19.1-10.2-26.2L372.9 141l25.8 25.8c2.1-1.4 4-3 5.8-4.7 7.2-7.4 11.3-17.3 11.3-27.6zm-15.4 11.7c-1.3-1-1.5-2.9-.4-4.2 2.2-2.7 2.7-6.5 1.1-9.6-.5-1.6.4-3.3 2-3.8 1.2-.4 2.6.1 3.3 1.1 2.6 5.2 1.9 11.5-1.8 16.1-1.1 1.2-2.9 1.4-4.2.4zM332.3 170.8l-94.7 94.7 12.6 12.5 100.2-88c5.5-4.8 6-13.2 1.2-18.6l-.6-.6c-5.2-5.2-13.6-5.2-18.7 0zM160.5 396.9l-4.3-18.5c-.5-2.2.5-4.4 2.5-5.5 45.4-22.8 82-46.2 108.8-69.7l-18.6-18.7-38.8 8.4-80.2 80.2 6.3 6.3 19.9 19.9c1 1 2.7 1 3.8 0 .5-.6.8-1.5.6-2.4zM107 399.8l45.3 3.1-26-26.1-20.2 20.2c-.6.6-.6 1.7 0 2.3.2.3.6.4.9.5zM244.6 280.3l-10.9-10.9-13.8 13.8c-.5.5-.5 1.4 0 1.9.3.3.8.4 1.2.4l23.5-5.2z"/><path class="st0" d="M406.4 129.8c-1-1.3-2.8-1.7-4.2-.7-1.1.8-1.5 2.1-1.1 3.3 1.5 3.1 1.1 6.9-1.1 9.6-1 1.3-.8 3.2.5 4.2.5.4 1.1.6 1.8.6.9 0 1.7-.4 2.3-1.1 3.7-4.4 4.4-10.7 1.8-15.9z"/></svg>